<mxfile host="app.diagrams.net" agent="Mozilla/5.0 (Windows NT 10.0; Win64; x64) AppleWebKit/537.36 (KHTML, like Gecko) Chrome/130.0.0.0 Safari/537.36" version="24.8.3">
  <diagram name="Page-1" id="8yHnxOyoxsymBT8GdeFe">
    <mxGraphModel dx="1512" dy="1389" grid="1" gridSize="10" guides="1" tooltips="1" connect="1" arrows="1" fold="1" page="0" pageScale="1" pageWidth="850" pageHeight="1100" math="0" shadow="0">
      <root>
        <mxCell id="0" />
        <mxCell id="1" parent="0" />
        <mxCell id="PLgZjWsrnCtM2MHi_RCp-1" value="&lt;p style=&quot;margin:0px;margin-top:4px;text-align:center;&quot;&gt;&lt;b&gt;Load players for Leaderboard&lt;/b&gt;&lt;/p&gt;&lt;hr size=&quot;1&quot; style=&quot;border-style:solid;&quot;&gt;&lt;div style=&quot;height:2px;&quot;&gt;do / loadPlayersFromCSV(filename)&lt;/div&gt;" style="verticalAlign=middle;align=middle;overflow=fill;html=1;whiteSpace=wrap;rounded=1;" vertex="1" parent="1">
          <mxGeometry x="-150" y="-110" width="220" height="50" as="geometry" />
        </mxCell>
        <mxCell id="PLgZjWsrnCtM2MHi_RCp-6" value="" style="ellipse;html=1;shape=startState;fillColor=#000000;strokeColor=#ff0000;" vertex="1" parent="1">
          <mxGeometry x="-55" y="-230" width="30" height="30" as="geometry" />
        </mxCell>
        <mxCell id="PLgZjWsrnCtM2MHi_RCp-7" value="" style="html=1;verticalAlign=bottom;endArrow=open;endSize=8;strokeColor=#ff0000;rounded=0;fontSize=12;entryX=0.5;entryY=0;entryDx=0;entryDy=0;exitX=0.515;exitY=0.866;exitDx=0;exitDy=0;exitPerimeter=0;" edge="1" source="PLgZjWsrnCtM2MHi_RCp-6" parent="1" target="PLgZjWsrnCtM2MHi_RCp-1">
          <mxGeometry relative="1" as="geometry">
            <mxPoint x="85" y="-140" as="targetPoint" />
          </mxGeometry>
        </mxCell>
        <mxCell id="PLgZjWsrnCtM2MHi_RCp-9" value="" style="endArrow=open;endFill=1;endSize=12;html=1;rounded=0;fontSize=12;exitX=0.25;exitY=1;exitDx=0;exitDy=0;entryX=0.5;entryY=0;entryDx=0;entryDy=0;edgeStyle=orthogonalEdgeStyle;" edge="1" parent="1" source="PLgZjWsrnCtM2MHi_RCp-1" target="PLgZjWsrnCtM2MHi_RCp-14">
          <mxGeometry width="160" relative="1" as="geometry">
            <mxPoint x="30" y="80" as="sourcePoint" />
            <mxPoint x="-54.999999999999886" y="100" as="targetPoint" />
          </mxGeometry>
        </mxCell>
        <mxCell id="PLgZjWsrnCtM2MHi_RCp-10" value="br.readLine() [!line.trim.isEmpty()]" style="edgeLabel;html=1;align=center;verticalAlign=middle;resizable=0;points=[];fontSize=12;" vertex="1" connectable="0" parent="PLgZjWsrnCtM2MHi_RCp-9">
          <mxGeometry x="-0.2908" y="2" relative="1" as="geometry">
            <mxPoint x="-66" y="-22" as="offset" />
          </mxGeometry>
        </mxCell>
        <mxCell id="PLgZjWsrnCtM2MHi_RCp-11" value="" style="endArrow=open;endFill=1;endSize=12;html=1;rounded=0;fontSize=12;exitX=0.25;exitY=1;exitDx=0;exitDy=0;entryX=0.5;entryY=0;entryDx=0;entryDy=0;edgeStyle=orthogonalEdgeStyle;" edge="1" parent="1" source="PLgZjWsrnCtM2MHi_RCp-14" target="PLgZjWsrnCtM2MHi_RCp-18">
          <mxGeometry width="160" relative="1" as="geometry">
            <mxPoint x="-54.999999999999886" y="120" as="sourcePoint" />
            <mxPoint x="-4.999999999999886" y="330" as="targetPoint" />
            <Array as="points">
              <mxPoint x="-282" y="170" />
              <mxPoint x="-415" y="170" />
            </Array>
          </mxGeometry>
        </mxCell>
        <mxCell id="PLgZjWsrnCtM2MHi_RCp-22" value="[array.length &amp;lt; 5 || array.length &amp;gt; 5]" style="edgeLabel;html=1;align=center;verticalAlign=middle;resizable=0;points=[];fontSize=12;" vertex="1" connectable="0" parent="PLgZjWsrnCtM2MHi_RCp-11">
          <mxGeometry x="0.0292" y="-3" relative="1" as="geometry">
            <mxPoint x="-30" y="-7" as="offset" />
          </mxGeometry>
        </mxCell>
        <mxCell id="PLgZjWsrnCtM2MHi_RCp-14" value="&lt;p style=&quot;margin:0px;margin-top:4px;text-align:center;&quot;&gt;&lt;b&gt;Line is not empty&lt;/b&gt;&lt;/p&gt;&lt;hr size=&quot;1&quot; style=&quot;border-style:solid;&quot;&gt;&lt;div style=&quot;height:2px;&quot;&gt;do / line.split(&quot;,&quot;)&lt;/div&gt;" style="verticalAlign=middle;align=middle;overflow=fill;html=1;whiteSpace=wrap;rounded=1;" vertex="1" parent="1">
          <mxGeometry x="-330" y="80" width="190" height="50" as="geometry" />
        </mxCell>
        <mxCell id="PLgZjWsrnCtM2MHi_RCp-18" value="&lt;p style=&quot;margin:0px;margin-top:4px;text-align:center;&quot;&gt;&lt;b&gt;Missing player data in line&lt;/b&gt;&lt;/p&gt;&lt;hr size=&quot;1&quot; style=&quot;border-style:solid;&quot;&gt;&lt;div style=&quot;height:2px;&quot;&gt;do / continue&amp;nbsp;&lt;/div&gt;" style="verticalAlign=middle;align=middle;overflow=fill;html=1;whiteSpace=wrap;rounded=1;" vertex="1" parent="1">
          <mxGeometry x="-500" y="220" width="170" height="50" as="geometry" />
        </mxCell>
        <mxCell id="PLgZjWsrnCtM2MHi_RCp-19" value="&lt;p style=&quot;margin:0px;margin-top:4px;text-align:center;&quot;&gt;&lt;b&gt;Line is empty&lt;/b&gt;&lt;/p&gt;&lt;hr size=&quot;1&quot; style=&quot;border-style:solid;&quot;&gt;&lt;div style=&quot;height:2px;&quot;&gt;do / continue&lt;/div&gt;" style="verticalAlign=middle;align=middle;overflow=fill;html=1;whiteSpace=wrap;rounded=1;" vertex="1" parent="1">
          <mxGeometry x="60" y="80" width="190" height="50" as="geometry" />
        </mxCell>
        <mxCell id="PLgZjWsrnCtM2MHi_RCp-20" value="" style="endArrow=open;endFill=1;endSize=12;html=1;rounded=0;fontSize=12;exitX=0.75;exitY=1;exitDx=0;exitDy=0;entryX=0.5;entryY=0;entryDx=0;entryDy=0;edgeStyle=orthogonalEdgeStyle;" edge="1" parent="1" source="PLgZjWsrnCtM2MHi_RCp-1" target="PLgZjWsrnCtM2MHi_RCp-19">
          <mxGeometry width="160" relative="1" as="geometry">
            <mxPoint x="150" y="30" as="sourcePoint" />
            <mxPoint x="310" y="30" as="targetPoint" />
            <Array as="points">
              <mxPoint x="15" y="10" />
              <mxPoint x="155" y="10" />
            </Array>
          </mxGeometry>
        </mxCell>
        <mxCell id="PLgZjWsrnCtM2MHi_RCp-21" value="br.readLine() [line.trim.isEmpty()]" style="edgeLabel;html=1;align=center;verticalAlign=middle;resizable=0;points=[];fontSize=12;" vertex="1" connectable="0" parent="PLgZjWsrnCtM2MHi_RCp-20">
          <mxGeometry x="-0.0502" y="1" relative="1" as="geometry">
            <mxPoint x="33" y="-19" as="offset" />
          </mxGeometry>
        </mxCell>
        <mxCell id="PLgZjWsrnCtM2MHi_RCp-23" value="&lt;p style=&quot;margin:0px;margin-top:4px;text-align:center;&quot;&gt;&lt;b&gt;New EloData instance is created&amp;nbsp;&lt;/b&gt;&lt;/p&gt;&lt;hr size=&quot;1&quot; style=&quot;border-style:solid;&quot;&gt;&lt;div style=&quot;height:2px;&quot;&gt;do / addPlayer(player)&lt;/div&gt;" style="verticalAlign=middle;align=middle;overflow=fill;html=1;whiteSpace=wrap;rounded=1;" vertex="1" parent="1">
          <mxGeometry x="-210" y="590" width="150" height="70" as="geometry" />
        </mxCell>
        <mxCell id="PLgZjWsrnCtM2MHi_RCp-24" value="" style="endArrow=open;endFill=1;endSize=12;html=1;rounded=0;fontSize=12;exitX=0.5;exitY=1;exitDx=0;exitDy=0;entryX=0.5;entryY=0;entryDx=0;entryDy=0;edgeStyle=orthogonalEdgeStyle;" edge="1" parent="1" source="PLgZjWsrnCtM2MHi_RCp-14" target="PLgZjWsrnCtM2MHi_RCp-23">
          <mxGeometry width="160" relative="1" as="geometry">
            <mxPoint x="-30" y="240" as="sourcePoint" />
            <mxPoint x="130" y="240" as="targetPoint" />
          </mxGeometry>
        </mxCell>
        <mxCell id="PLgZjWsrnCtM2MHi_RCp-25" value="[array.length == 5]" style="edgeLabel;html=1;align=center;verticalAlign=middle;resizable=0;points=[];fontSize=12;" vertex="1" connectable="0" parent="PLgZjWsrnCtM2MHi_RCp-24">
          <mxGeometry x="-0.0009" y="1" relative="1" as="geometry">
            <mxPoint x="-47" y="-99" as="offset" />
          </mxGeometry>
        </mxCell>
        <mxCell id="PLgZjWsrnCtM2MHi_RCp-26" value="" style="endArrow=open;endFill=1;endSize=12;html=1;rounded=0;fontSize=12;exitX=0.75;exitY=1;exitDx=0;exitDy=0;edgeStyle=orthogonalEdgeStyle;entryX=1;entryY=0.5;entryDx=0;entryDy=0;" edge="1" parent="1" source="PLgZjWsrnCtM2MHi_RCp-19" target="PLgZjWsrnCtM2MHi_RCp-19">
          <mxGeometry width="160" relative="1" as="geometry">
            <mxPoint x="280" y="210" as="sourcePoint" />
            <mxPoint x="460" y="50" as="targetPoint" />
            <Array as="points">
              <mxPoint x="203" y="170" />
              <mxPoint x="292" y="170" />
              <mxPoint x="292" y="105" />
            </Array>
          </mxGeometry>
        </mxCell>
        <mxCell id="PLgZjWsrnCtM2MHi_RCp-30" value="[line.trim.isEmpty()]" style="edgeLabel;html=1;align=center;verticalAlign=middle;resizable=0;points=[];fontSize=12;" vertex="1" connectable="0" parent="PLgZjWsrnCtM2MHi_RCp-26">
          <mxGeometry x="-0.272" y="-3" relative="1" as="geometry">
            <mxPoint x="1" y="7" as="offset" />
          </mxGeometry>
        </mxCell>
        <mxCell id="PLgZjWsrnCtM2MHi_RCp-28" value="" style="endArrow=open;endFill=1;endSize=12;html=1;rounded=0;fontSize=12;curved=1;exitX=0;exitY=0.5;exitDx=0;exitDy=0;entryX=1;entryY=0.5;entryDx=0;entryDy=0;" edge="1" parent="1" source="PLgZjWsrnCtM2MHi_RCp-19" target="PLgZjWsrnCtM2MHi_RCp-14">
          <mxGeometry width="160" relative="1" as="geometry">
            <mxPoint x="70" y="220" as="sourcePoint" />
            <mxPoint x="230" y="220" as="targetPoint" />
          </mxGeometry>
        </mxCell>
        <mxCell id="PLgZjWsrnCtM2MHi_RCp-29" value="[!line.trim.isEmpty()]" style="edgeLabel;html=1;align=center;verticalAlign=middle;resizable=0;points=[];fontSize=12;" vertex="1" connectable="0" parent="PLgZjWsrnCtM2MHi_RCp-28">
          <mxGeometry x="0.1185" y="-3" relative="1" as="geometry">
            <mxPoint x="21" y="-12" as="offset" />
          </mxGeometry>
        </mxCell>
        <mxCell id="PLgZjWsrnCtM2MHi_RCp-31" value="" style="endArrow=open;endFill=1;endSize=12;html=1;rounded=0;fontSize=12;exitX=0.25;exitY=1;exitDx=0;exitDy=0;edgeStyle=orthogonalEdgeStyle;entryX=0;entryY=0.5;entryDx=0;entryDy=0;" edge="1" parent="1" source="PLgZjWsrnCtM2MHi_RCp-18" target="PLgZjWsrnCtM2MHi_RCp-18">
          <mxGeometry width="160" relative="1" as="geometry">
            <mxPoint x="-130" y="489.05" as="sourcePoint" />
            <mxPoint x="-320" y="350" as="targetPoint" />
            <Array as="points">
              <mxPoint x="-460" y="300" />
              <mxPoint x="-590" y="300" />
              <mxPoint x="-590" y="245" />
            </Array>
          </mxGeometry>
        </mxCell>
        <mxCell id="PLgZjWsrnCtM2MHi_RCp-32" value="[array.length &amp;gt; 5 || array.length &amp;lt; 5]" style="edgeLabel;html=1;align=center;verticalAlign=middle;resizable=0;points=[];fontSize=12;" vertex="1" connectable="0" parent="PLgZjWsrnCtM2MHi_RCp-31">
          <mxGeometry x="-0.3177" relative="1" as="geometry">
            <mxPoint x="4" y="10" as="offset" />
          </mxGeometry>
        </mxCell>
        <mxCell id="PLgZjWsrnCtM2MHi_RCp-33" value="" style="endArrow=open;endFill=1;endSize=12;html=1;rounded=0;fontSize=12;exitX=0.75;exitY=1;exitDx=0;exitDy=0;entryX=0;entryY=0.5;entryDx=0;entryDy=0;edgeStyle=orthogonalEdgeStyle;" edge="1" parent="1" source="PLgZjWsrnCtM2MHi_RCp-18" target="PLgZjWsrnCtM2MHi_RCp-23">
          <mxGeometry width="160" relative="1" as="geometry">
            <mxPoint x="-110" y="510" as="sourcePoint" />
            <mxPoint x="50" y="510" as="targetPoint" />
          </mxGeometry>
        </mxCell>
        <mxCell id="PLgZjWsrnCtM2MHi_RCp-34" value="[array.length == 5]" style="edgeLabel;html=1;align=center;verticalAlign=middle;resizable=0;points=[];fontSize=12;" vertex="1" connectable="0" parent="PLgZjWsrnCtM2MHi_RCp-33">
          <mxGeometry x="-0.0165" y="1" relative="1" as="geometry">
            <mxPoint y="-172" as="offset" />
          </mxGeometry>
        </mxCell>
        <mxCell id="PLgZjWsrnCtM2MHi_RCp-35" value="&lt;p style=&quot;margin:0px;margin-top:4px;text-align:center;&quot;&gt;&lt;b&gt;File is empty&lt;/b&gt;&lt;/p&gt;" style="verticalAlign=middle;align=middle;overflow=fill;html=1;whiteSpace=wrap;rounded=1;" vertex="1" parent="1">
          <mxGeometry x="230" y="-95" width="90" height="20" as="geometry" />
        </mxCell>
        <mxCell id="PLgZjWsrnCtM2MHi_RCp-36" value="" style="endArrow=open;endFill=1;endSize=12;html=1;rounded=0;fontSize=12;curved=1;exitX=1;exitY=0.5;exitDx=0;exitDy=0;entryX=0;entryY=0.5;entryDx=0;entryDy=0;" edge="1" parent="1" source="PLgZjWsrnCtM2MHi_RCp-1" target="PLgZjWsrnCtM2MHi_RCp-35">
          <mxGeometry width="160" relative="1" as="geometry">
            <mxPoint x="90" y="260" as="sourcePoint" />
            <mxPoint x="250" y="260" as="targetPoint" />
          </mxGeometry>
        </mxCell>
        <mxCell id="PLgZjWsrnCtM2MHi_RCp-37" value="br.readLine() [line == null]" style="edgeLabel;html=1;align=center;verticalAlign=middle;resizable=0;points=[];fontSize=12;" vertex="1" connectable="0" parent="PLgZjWsrnCtM2MHi_RCp-36">
          <mxGeometry x="0.0027" y="3" relative="1" as="geometry">
            <mxPoint y="-22" as="offset" />
          </mxGeometry>
        </mxCell>
        <mxCell id="PLgZjWsrnCtM2MHi_RCp-38" value="&lt;p style=&quot;margin:0px;margin-top:4px;text-align:center;&quot;&gt;&lt;b&gt;Reached end of file (EOF)&amp;nbsp;&lt;/b&gt;&lt;/p&gt;&lt;div style=&quot;height:2px;&quot;&gt;&lt;br&gt;&lt;/div&gt;" style="verticalAlign=middle;align=middle;overflow=fill;html=1;whiteSpace=wrap;rounded=1;" vertex="1" parent="1">
          <mxGeometry y="300" width="130" height="40" as="geometry" />
        </mxCell>
        <mxCell id="PLgZjWsrnCtM2MHi_RCp-39" value="" style="endArrow=open;endFill=1;endSize=12;html=1;rounded=0;fontSize=12;exitX=0.25;exitY=1;exitDx=0;exitDy=0;entryX=0;entryY=0.5;entryDx=0;entryDy=0;edgeStyle=orthogonalEdgeStyle;" edge="1" parent="1" source="PLgZjWsrnCtM2MHi_RCp-23" target="PLgZjWsrnCtM2MHi_RCp-14">
          <mxGeometry width="160" relative="1" as="geometry">
            <mxPoint x="20" y="290" as="sourcePoint" />
            <mxPoint x="180" y="290" as="targetPoint" />
            <Array as="points">
              <mxPoint x="-175" y="690" />
              <mxPoint x="-630" y="690" />
              <mxPoint x="-630" y="105" />
            </Array>
          </mxGeometry>
        </mxCell>
        <mxCell id="PLgZjWsrnCtM2MHi_RCp-40" value="[!line.trim.isEmpty()]" style="edgeLabel;html=1;align=center;verticalAlign=middle;resizable=0;points=[];fontSize=12;" vertex="1" connectable="0" parent="PLgZjWsrnCtM2MHi_RCp-39">
          <mxGeometry x="-0.0049" relative="1" as="geometry">
            <mxPoint x="230" y="196" as="offset" />
          </mxGeometry>
        </mxCell>
        <mxCell id="PLgZjWsrnCtM2MHi_RCp-41" value="" style="endArrow=open;endFill=1;endSize=12;html=1;rounded=0;fontSize=12;exitX=0.75;exitY=1;exitDx=0;exitDy=0;entryX=0.75;entryY=0;entryDx=0;entryDy=0;edgeStyle=orthogonalEdgeStyle;" edge="1" parent="1" source="PLgZjWsrnCtM2MHi_RCp-23" target="PLgZjWsrnCtM2MHi_RCp-19">
          <mxGeometry width="160" relative="1" as="geometry">
            <mxPoint x="30" y="290" as="sourcePoint" />
            <mxPoint x="190" y="290" as="targetPoint" />
            <Array as="points">
              <mxPoint x="-105" y="690" />
              <mxPoint x="330" y="690" />
              <mxPoint x="330" y="40" />
              <mxPoint x="202" y="40" />
            </Array>
          </mxGeometry>
        </mxCell>
        <mxCell id="PLgZjWsrnCtM2MHi_RCp-43" value="[line.trim.isEmpty()]" style="edgeLabel;html=1;align=center;verticalAlign=middle;resizable=0;points=[];fontSize=12;" vertex="1" connectable="0" parent="PLgZjWsrnCtM2MHi_RCp-41">
          <mxGeometry x="0.0483" y="2" relative="1" as="geometry">
            <mxPoint x="-308" y="204" as="offset" />
          </mxGeometry>
        </mxCell>
        <mxCell id="PLgZjWsrnCtM2MHi_RCp-44" value="" style="endArrow=open;endFill=1;endSize=12;html=1;rounded=0;fontSize=12;exitX=0.75;exitY=1;exitDx=0;exitDy=0;entryX=0.25;entryY=0;entryDx=0;entryDy=0;edgeStyle=orthogonalEdgeStyle;" edge="1" parent="1" source="PLgZjWsrnCtM2MHi_RCp-14" target="PLgZjWsrnCtM2MHi_RCp-38">
          <mxGeometry width="160" relative="1" as="geometry">
            <mxPoint x="-10" y="240" as="sourcePoint" />
            <mxPoint x="237.5" y="320" as="targetPoint" />
          </mxGeometry>
        </mxCell>
        <mxCell id="PLgZjWsrnCtM2MHi_RCp-45" value="[line == null]" style="edgeLabel;html=1;align=center;verticalAlign=middle;resizable=0;points=[];fontSize=12;" vertex="1" connectable="0" parent="PLgZjWsrnCtM2MHi_RCp-44">
          <mxGeometry x="0.0124" y="1" relative="1" as="geometry">
            <mxPoint as="offset" />
          </mxGeometry>
        </mxCell>
        <mxCell id="PLgZjWsrnCtM2MHi_RCp-46" value="" style="endArrow=open;endFill=1;endSize=12;html=1;rounded=0;fontSize=12;exitX=0.5;exitY=1;exitDx=0;exitDy=0;entryX=0.75;entryY=0;entryDx=0;entryDy=0;edgeStyle=orthogonalEdgeStyle;" edge="1" parent="1" source="PLgZjWsrnCtM2MHi_RCp-19" target="PLgZjWsrnCtM2MHi_RCp-38">
          <mxGeometry width="160" relative="1" as="geometry">
            <mxPoint x="40" y="290" as="sourcePoint" />
            <mxPoint x="200" y="290" as="targetPoint" />
          </mxGeometry>
        </mxCell>
        <mxCell id="PLgZjWsrnCtM2MHi_RCp-47" value="[line == null]" style="edgeLabel;html=1;align=center;verticalAlign=middle;resizable=0;points=[];fontSize=12;" vertex="1" connectable="0" parent="PLgZjWsrnCtM2MHi_RCp-46">
          <mxGeometry x="0.0005" y="2" relative="1" as="geometry">
            <mxPoint x="-16" y="-17" as="offset" />
          </mxGeometry>
        </mxCell>
        <mxCell id="PLgZjWsrnCtM2MHi_RCp-48" value="&lt;p style=&quot;margin:0px;margin-top:4px;text-align:center;&quot;&gt;&lt;b&gt;Leaderboard is sorted&lt;/b&gt;&lt;/p&gt;" style="verticalAlign=middle;align=middle;overflow=fill;html=1;whiteSpace=wrap;rounded=1;" vertex="1" parent="1">
          <mxGeometry x="5" y="440" width="120" height="40" as="geometry" />
        </mxCell>
        <mxCell id="PLgZjWsrnCtM2MHi_RCp-49" value="" style="endArrow=open;endFill=1;endSize=12;html=1;rounded=0;fontSize=12;curved=1;exitX=0.5;exitY=1;exitDx=0;exitDy=0;entryX=0.5;entryY=0;entryDx=0;entryDy=0;" edge="1" parent="1" source="PLgZjWsrnCtM2MHi_RCp-38" target="PLgZjWsrnCtM2MHi_RCp-48">
          <mxGeometry width="160" relative="1" as="geometry">
            <mxPoint x="40" y="290" as="sourcePoint" />
            <mxPoint x="200" y="290" as="targetPoint" />
          </mxGeometry>
        </mxCell>
        <mxCell id="PLgZjWsrnCtM2MHi_RCp-50" value="sortedLeaderboard()" style="edgeLabel;html=1;align=center;verticalAlign=middle;resizable=0;points=[];fontSize=12;" vertex="1" connectable="0" parent="PLgZjWsrnCtM2MHi_RCp-49">
          <mxGeometry x="0.056" y="1" relative="1" as="geometry">
            <mxPoint as="offset" />
          </mxGeometry>
        </mxCell>
        <mxCell id="PLgZjWsrnCtM2MHi_RCp-51" value="sm Leaderboard" style="shape=umlFrame;whiteSpace=wrap;html=1;pointerEvents=0;width=120;height=30;" vertex="1" parent="1">
          <mxGeometry x="-690" y="-250" width="1070" height="980" as="geometry" />
        </mxCell>
        <mxCell id="PLgZjWsrnCtM2MHi_RCp-52" value="&lt;p style=&quot;margin:0px;margin-top:4px;text-align:center;&quot;&gt;&lt;b&gt;Data from .csv file is parsed&lt;/b&gt;&lt;/p&gt;" style="verticalAlign=middle;align=middle;overflow=fill;html=1;whiteSpace=wrap;rounded=1;" vertex="1" parent="1">
          <mxGeometry x="-230" y="960" width="140" height="40" as="geometry" />
        </mxCell>
        <mxCell id="PLgZjWsrnCtM2MHi_RCp-53" value="" style="ellipse;html=1;shape=startState;fillColor=#000000;strokeColor=#ff0000;" vertex="1" parent="1">
          <mxGeometry x="-175" y="840" width="30" height="30" as="geometry" />
        </mxCell>
        <mxCell id="PLgZjWsrnCtM2MHi_RCp-54" value="" style="html=1;verticalAlign=bottom;endArrow=open;endSize=8;strokeColor=#ff0000;rounded=0;fontSize=12;entryX=0.5;entryY=0;entryDx=0;entryDy=0;exitX=0.515;exitY=0.866;exitDx=0;exitDy=0;exitPerimeter=0;" edge="1" parent="1" source="PLgZjWsrnCtM2MHi_RCp-53" target="PLgZjWsrnCtM2MHi_RCp-52">
          <mxGeometry relative="1" as="geometry">
            <mxPoint x="-160" y="940" as="targetPoint" />
          </mxGeometry>
        </mxCell>
        <mxCell id="PLgZjWsrnCtM2MHi_RCp-55" value="&lt;p style=&quot;margin:0px;margin-top:4px;text-align:center;&quot;&gt;&lt;b&gt;Players added to queue&amp;nbsp;&lt;/b&gt;&lt;/p&gt;&lt;hr size=&quot;1&quot; style=&quot;border-style:solid;&quot;&gt;&lt;div style=&quot;height:2px;&quot;&gt;do / findMatch()&lt;/div&gt;" style="verticalAlign=middle;align=middle;overflow=fill;html=1;whiteSpace=wrap;rounded=1;" vertex="1" parent="1">
          <mxGeometry x="-235" y="1090" width="150" height="50" as="geometry" />
        </mxCell>
        <mxCell id="PLgZjWsrnCtM2MHi_RCp-56" value="" style="endArrow=open;endFill=1;endSize=12;html=1;rounded=0;fontSize=12;curved=1;entryX=0.5;entryY=0;entryDx=0;entryDy=0;" edge="1" parent="1" target="PLgZjWsrnCtM2MHi_RCp-55">
          <mxGeometry width="160" relative="1" as="geometry">
            <mxPoint x="-160" y="1000" as="sourcePoint" />
            <mxPoint x="-20" y="1050" as="targetPoint" />
          </mxGeometry>
        </mxCell>
        <mxCell id="PLgZjWsrnCtM2MHi_RCp-57" value="addPlayerToQueue(player)" style="edgeLabel;html=1;align=center;verticalAlign=middle;resizable=0;points=[];fontSize=12;" vertex="1" connectable="0" parent="PLgZjWsrnCtM2MHi_RCp-56">
          <mxGeometry x="-0.0902" y="-3" relative="1" as="geometry">
            <mxPoint x="1" as="offset" />
          </mxGeometry>
        </mxCell>
        <mxCell id="PLgZjWsrnCtM2MHi_RCp-59" value="" style="endArrow=open;endFill=1;endSize=12;html=1;rounded=0;fontSize=12;curved=1;exitX=0.5;exitY=1;exitDx=0;exitDy=0;entryX=0.5;entryY=0;entryDx=0;entryDy=0;" edge="1" parent="1" source="PLgZjWsrnCtM2MHi_RCp-55" target="PLgZjWsrnCtM2MHi_RCp-61">
          <mxGeometry width="160" relative="1" as="geometry">
            <mxPoint x="-180" y="1200" as="sourcePoint" />
            <mxPoint x="-160" y="1250" as="targetPoint" />
          </mxGeometry>
        </mxCell>
        <mxCell id="PLgZjWsrnCtM2MHi_RCp-60" value="queue.sort()" style="edgeLabel;html=1;align=center;verticalAlign=middle;resizable=0;points=[];fontSize=12;" vertex="1" connectable="0" parent="PLgZjWsrnCtM2MHi_RCp-59">
          <mxGeometry x="-0.0113" y="1" relative="1" as="geometry">
            <mxPoint as="offset" />
          </mxGeometry>
        </mxCell>
        <mxCell id="PLgZjWsrnCtM2MHi_RCp-61" value="&lt;p style=&quot;margin:0px;margin-top:4px;text-align:center;&quot;&gt;&lt;b&gt;Player queue is sorted according to descending elo ratings&amp;nbsp;&amp;nbsp;&lt;/b&gt;&lt;/p&gt;&lt;div style=&quot;height:2px;&quot;&gt;&lt;br&gt;&lt;/div&gt;" style="verticalAlign=middle;align=middle;overflow=fill;html=1;whiteSpace=wrap;rounded=1;" vertex="1" parent="1">
          <mxGeometry x="-267.5" y="1270" width="215" height="40" as="geometry" />
        </mxCell>
        <mxCell id="PLgZjWsrnCtM2MHi_RCp-63" value="&lt;p style=&quot;margin:0px;margin-top:4px;text-align:center;&quot;&gt;&lt;b&gt;2 Players with similar elo ratings are found&amp;nbsp;&amp;nbsp;&lt;/b&gt;&lt;/p&gt;&lt;hr size=&quot;1&quot; style=&quot;border-style:solid;&quot;&gt;&lt;div style=&quot;height:2px;&quot;&gt;do / createMatch(player1, player2)&lt;/div&gt;" style="verticalAlign=middle;align=middle;overflow=fill;html=1;whiteSpace=wrap;rounded=1;" vertex="1" parent="1">
          <mxGeometry x="-400" y="1580" width="215" height="70" as="geometry" />
        </mxCell>
        <mxCell id="PLgZjWsrnCtM2MHi_RCp-70" value="" style="endArrow=open;endFill=1;endSize=12;html=1;rounded=0;fontSize=12;exitX=0.25;exitY=1;exitDx=0;exitDy=0;entryX=0.5;entryY=0;entryDx=0;entryDy=0;edgeStyle=orthogonalEdgeStyle;" edge="1" parent="1" source="PLgZjWsrnCtM2MHi_RCp-78" target="PLgZjWsrnCtM2MHi_RCp-63">
          <mxGeometry width="160" relative="1" as="geometry">
            <mxPoint x="-180" y="1520" as="sourcePoint" />
            <mxPoint x="-20" y="1520" as="targetPoint" />
          </mxGeometry>
        </mxCell>
        <mxCell id="PLgZjWsrnCtM2MHi_RCp-71" value="[(elo1 - elo2) &amp;lt;= eloRange]" style="edgeLabel;html=1;align=center;verticalAlign=middle;resizable=0;points=[];fontSize=12;" vertex="1" connectable="0" parent="PLgZjWsrnCtM2MHi_RCp-70">
          <mxGeometry x="-0.0257" relative="1" as="geometry">
            <mxPoint x="-40" y="-15" as="offset" />
          </mxGeometry>
        </mxCell>
        <mxCell id="PLgZjWsrnCtM2MHi_RCp-72" value="&lt;p style=&quot;margin:0px;margin-top:4px;text-align:center;&quot;&gt;&lt;b&gt;Matched players are dequeued&amp;nbsp;&lt;/b&gt;&lt;/p&gt;&lt;hr size=&quot;1&quot; style=&quot;border-style:solid;&quot;&gt;&lt;div style=&quot;height:2px;&quot;&gt;do / move to next 2 players in queue&lt;/div&gt;" style="verticalAlign=middle;align=middle;overflow=fill;html=1;whiteSpace=wrap;rounded=1;" vertex="1" parent="1">
          <mxGeometry x="-400" y="1760" width="215" height="50" as="geometry" />
        </mxCell>
        <mxCell id="PLgZjWsrnCtM2MHi_RCp-73" value="" style="endArrow=open;endFill=1;endSize=12;html=1;rounded=0;fontSize=12;curved=1;exitX=0.5;exitY=1;exitDx=0;exitDy=0;entryX=0.5;entryY=0;entryDx=0;entryDy=0;" edge="1" parent="1" source="PLgZjWsrnCtM2MHi_RCp-63" target="PLgZjWsrnCtM2MHi_RCp-72">
          <mxGeometry width="160" relative="1" as="geometry">
            <mxPoint x="-180" y="1520" as="sourcePoint" />
            <mxPoint x="-20" y="1520" as="targetPoint" />
          </mxGeometry>
        </mxCell>
        <mxCell id="PLgZjWsrnCtM2MHi_RCp-74" value="queue.remove(player1),&lt;div&gt;queue.remove(player2)&lt;/div&gt;" style="edgeLabel;html=1;align=center;verticalAlign=middle;resizable=0;points=[];fontSize=12;" vertex="1" connectable="0" parent="PLgZjWsrnCtM2MHi_RCp-73">
          <mxGeometry x="0.0434" y="-2" relative="1" as="geometry">
            <mxPoint x="-1" as="offset" />
          </mxGeometry>
        </mxCell>
        <mxCell id="PLgZjWsrnCtM2MHi_RCp-75" value="" style="endArrow=open;endFill=1;endSize=12;html=1;rounded=0;fontSize=12;exitX=0;exitY=0.5;exitDx=0;exitDy=0;entryX=0;entryY=0.5;entryDx=0;entryDy=0;edgeStyle=orthogonalEdgeStyle;" edge="1" parent="1" source="PLgZjWsrnCtM2MHi_RCp-72" target="PLgZjWsrnCtM2MHi_RCp-78">
          <mxGeometry width="160" relative="1" as="geometry">
            <mxPoint x="-200" y="1800" as="sourcePoint" />
            <mxPoint x="-110" y="1560" as="targetPoint" />
            <Array as="points">
              <mxPoint x="-430" y="1785" />
              <mxPoint x="-430" y="1430" />
            </Array>
          </mxGeometry>
        </mxCell>
        <mxCell id="PLgZjWsrnCtM2MHi_RCp-76" value="[!queue.isEmpty() &amp;amp;&amp;amp; i &amp;lt; queue.size()]" style="edgeLabel;html=1;align=center;verticalAlign=middle;resizable=0;points=[];fontSize=12;" vertex="1" connectable="0" parent="PLgZjWsrnCtM2MHi_RCp-75">
          <mxGeometry x="0.0026" y="2" relative="1" as="geometry">
            <mxPoint x="82" y="-99" as="offset" />
          </mxGeometry>
        </mxCell>
        <mxCell id="PLgZjWsrnCtM2MHi_RCp-78" value="&lt;p style=&quot;margin:0px;margin-top:4px;text-align:center;&quot;&gt;&lt;b&gt;Fetched 2 players from queue&lt;/b&gt;&lt;/p&gt;" style="verticalAlign=middle;align=middle;overflow=fill;html=1;whiteSpace=wrap;rounded=1;" vertex="1" parent="1">
          <mxGeometry x="-225" y="1410" width="125" height="40" as="geometry" />
        </mxCell>
        <mxCell id="PLgZjWsrnCtM2MHi_RCp-79" value="" style="endArrow=open;endFill=1;endSize=12;html=1;rounded=0;fontSize=12;curved=1;exitX=0.5;exitY=1;exitDx=0;exitDy=0;entryX=0.5;entryY=0;entryDx=0;entryDy=0;" edge="1" parent="1" source="PLgZjWsrnCtM2MHi_RCp-61" target="PLgZjWsrnCtM2MHi_RCp-78">
          <mxGeometry width="160" relative="1" as="geometry">
            <mxPoint x="-20" y="1370" as="sourcePoint" />
            <mxPoint x="140" y="1370" as="targetPoint" />
          </mxGeometry>
        </mxCell>
        <mxCell id="PLgZjWsrnCtM2MHi_RCp-80" value="&lt;span style=&quot;text-align: start; text-wrap-mode: wrap;&quot;&gt;queue.get(i), queue.get(i+1)&lt;/span&gt;" style="edgeLabel;html=1;align=center;verticalAlign=middle;resizable=0;points=[];fontSize=12;" vertex="1" connectable="0" parent="PLgZjWsrnCtM2MHi_RCp-79">
          <mxGeometry x="-0.0239" y="-1" relative="1" as="geometry">
            <mxPoint as="offset" />
          </mxGeometry>
        </mxCell>
        <mxCell id="PLgZjWsrnCtM2MHi_RCp-81" value="&lt;p style=&quot;margin:0px;margin-top:4px;text-align:center;&quot;&gt;&lt;b&gt;Players do not have similar elo ratings&amp;nbsp;&lt;/b&gt;&lt;/p&gt;&lt;hr size=&quot;1&quot; style=&quot;border-style:solid;&quot;&gt;&lt;div style=&quot;height:2px;&quot;&gt;do / players stay in queue, move to next players in queue&lt;/div&gt;" style="verticalAlign=middle;align=middle;overflow=fill;html=1;whiteSpace=wrap;rounded=1;" vertex="1" parent="1">
          <mxGeometry x="-110" y="1580" width="200" height="80" as="geometry" />
        </mxCell>
        <mxCell id="PLgZjWsrnCtM2MHi_RCp-82" value="" style="endArrow=open;endFill=1;endSize=12;html=1;rounded=0;fontSize=12;exitX=0.75;exitY=1;exitDx=0;exitDy=0;entryX=0.5;entryY=0;entryDx=0;entryDy=0;edgeStyle=orthogonalEdgeStyle;" edge="1" parent="1" source="PLgZjWsrnCtM2MHi_RCp-78" target="PLgZjWsrnCtM2MHi_RCp-81">
          <mxGeometry width="160" relative="1" as="geometry">
            <mxPoint x="-120" y="1530" as="sourcePoint" />
            <mxPoint x="40" y="1530" as="targetPoint" />
          </mxGeometry>
        </mxCell>
        <mxCell id="PLgZjWsrnCtM2MHi_RCp-83" value="[(elo1 - elo2) &amp;gt; eloRange]" style="edgeLabel;html=1;align=center;verticalAlign=middle;resizable=0;points=[];fontSize=12;" vertex="1" connectable="0" parent="PLgZjWsrnCtM2MHi_RCp-82">
          <mxGeometry x="-0.0127" y="-3" relative="1" as="geometry">
            <mxPoint x="20" y="-18" as="offset" />
          </mxGeometry>
        </mxCell>
        <mxCell id="PLgZjWsrnCtM2MHi_RCp-84" value="" style="endArrow=open;endFill=1;endSize=12;html=1;rounded=0;fontSize=12;exitX=1;exitY=0.5;exitDx=0;exitDy=0;entryX=1;entryY=0.5;entryDx=0;entryDy=0;edgeStyle=orthogonalEdgeStyle;" edge="1" parent="1" source="PLgZjWsrnCtM2MHi_RCp-81" target="PLgZjWsrnCtM2MHi_RCp-78">
          <mxGeometry width="160" relative="1" as="geometry">
            <mxPoint x="-472" y="1795" as="sourcePoint" />
            <mxPoint x="-325" y="1420" as="targetPoint" />
            <Array as="points">
              <mxPoint x="120" y="1620" />
              <mxPoint x="120" y="1430" />
            </Array>
          </mxGeometry>
        </mxCell>
        <mxCell id="PLgZjWsrnCtM2MHi_RCp-85" value="[!queue.isEmpty() &amp;amp;&amp;amp; i &amp;lt; queue.size()]" style="edgeLabel;html=1;align=center;verticalAlign=middle;resizable=0;points=[];fontSize=12;" vertex="1" connectable="0" parent="PLgZjWsrnCtM2MHi_RCp-84">
          <mxGeometry x="0.0026" y="2" relative="1" as="geometry">
            <mxPoint x="-89" y="-12" as="offset" />
          </mxGeometry>
        </mxCell>
        <mxCell id="PLgZjWsrnCtM2MHi_RCp-86" value="" style="endArrow=open;endFill=1;endSize=12;html=1;rounded=0;fontSize=12;curved=1;exitX=0.5;exitY=1;exitDx=0;exitDy=0;entryX=0.5;entryY=0;entryDx=0;entryDy=0;" edge="1" parent="1" source="PLgZjWsrnCtM2MHi_RCp-72" target="PLgZjWsrnCtM2MHi_RCp-88">
          <mxGeometry width="160" relative="1" as="geometry">
            <mxPoint x="-462" y="1805" as="sourcePoint" />
            <mxPoint x="-50" y="1880" as="targetPoint" />
          </mxGeometry>
        </mxCell>
        <mxCell id="PLgZjWsrnCtM2MHi_RCp-87" value="[queue.isEmpty()]" style="edgeLabel;html=1;align=center;verticalAlign=middle;resizable=0;points=[];fontSize=12;" vertex="1" connectable="0" parent="PLgZjWsrnCtM2MHi_RCp-86">
          <mxGeometry x="0.0026" y="2" relative="1" as="geometry">
            <mxPoint x="-2" y="-11" as="offset" />
          </mxGeometry>
        </mxCell>
        <mxCell id="PLgZjWsrnCtM2MHi_RCp-88" value="&lt;p style=&quot;margin:0px;margin-top:4px;text-align:center;&quot;&gt;&lt;b&gt;All players matched&amp;nbsp;&lt;/b&gt;&lt;/p&gt;" style="verticalAlign=middle;align=middle;overflow=fill;html=1;whiteSpace=wrap;rounded=1;" vertex="1" parent="1">
          <mxGeometry x="-362.5" y="1870" width="140" height="20" as="geometry" />
        </mxCell>
        <mxCell id="PLgZjWsrnCtM2MHi_RCp-91" value="" style="endArrow=open;endFill=1;endSize=12;html=1;rounded=0;fontSize=12;curved=1;exitX=0.5;exitY=1;exitDx=0;exitDy=0;entryX=0.5;entryY=0;entryDx=0;entryDy=0;" edge="1" parent="1" source="PLgZjWsrnCtM2MHi_RCp-81" target="PLgZjWsrnCtM2MHi_RCp-93">
          <mxGeometry width="160" relative="1" as="geometry">
            <mxPoint x="-30" y="1750" as="sourcePoint" />
            <mxPoint x="-70" y="1860" as="targetPoint" />
          </mxGeometry>
        </mxCell>
        <mxCell id="PLgZjWsrnCtM2MHi_RCp-92" value="[!queue.isEmpty() &amp;amp;&amp;amp; i &amp;gt;= queue.size()]" style="edgeLabel;html=1;align=center;verticalAlign=middle;resizable=0;points=[];fontSize=12;" vertex="1" connectable="0" parent="PLgZjWsrnCtM2MHi_RCp-91">
          <mxGeometry x="-0.0263" y="1" relative="1" as="geometry">
            <mxPoint as="offset" />
          </mxGeometry>
        </mxCell>
        <mxCell id="PLgZjWsrnCtM2MHi_RCp-93" value="&lt;p style=&quot;margin:0px;margin-top:4px;text-align:center;&quot;&gt;&lt;b&gt;Remaining players don&#39;t have the same elo ratings and remain queued&lt;/b&gt;&lt;/p&gt;" style="verticalAlign=middle;align=middle;overflow=fill;html=1;whiteSpace=wrap;rounded=1;" vertex="1" parent="1">
          <mxGeometry x="-100" y="1800" width="180" height="50" as="geometry" />
        </mxCell>
        <mxCell id="PLgZjWsrnCtM2MHi_RCp-96" value="sm Matchmaker" style="shape=umlFrame;whiteSpace=wrap;html=1;pointerEvents=0;width=120;height=30;" vertex="1" parent="1">
          <mxGeometry x="-470" y="820" width="630" height="1090" as="geometry" />
        </mxCell>
      </root>
    </mxGraphModel>
  </diagram>
</mxfile>
